# xmcd CD database file
# Copyright (C) 1995-1998 Ti Kan
#
# Track frame offsets:
#	200
#	19000
#	34355
#	47105
#
# Disc length: 941 seconds
#
# Revision: 1
# Processed by: cddbd v1.4PL0 Copyright (c) Steve Scherf et al.
# Submitted via: CDex 1.30Release
#
DISCID=2d03ab04
DTITLE=Marc Cohn - True Companion - single
DYEAR=1991
DGENRE=Blues
TTITLE0=true companion
TTITLE1=miles away
TTITLE2=strangers in a car
TTITLE3=walking in memphis - live
EXTD=YEAR: 1991 ID3G:   0
EXTT0=
EXTT1=
EXTT2=
EXTT3=
PLAYORDER=
